<svg id="mensuration-table" style="path { stroke:black" version="1.1" viewBox="0 0 960 500" xmlns="http://www.w3.org/2000/svg" xmlns:cc="http://creativecommons.org/ns#" xmlns:dc="http://purl.org/dc/elements/1.1/" xmlns:rdf="http://www.w3.org/1999/02/22-rdf-syntax-ns#" xmlns:xlink="http://www.w3.org/1999/xlink">
  <metadata>
    <rdf:RDF>
      <cc:Work rdf:about="">
        <dc:format>image/svg+xml</dc:format>
        <dc:type rdf:resource="http://purl.org/dc/dcmitype/StillImage"/>
        <dc:title/>
      </cc:Work>
    </rdf:RDF>
  </metadata>
  <symbol id="uniE910" viewBox="2 383 870 870">
    <path d="m334 818q0 42 30 73t73 31q42 0 72-31t30-73-30-72-72-30q-43 0-73 30t-30 72zm102 358q-144 0-250-106t-106-250 104-253q104-104 252-104t252 104 104 253-104 249q-107 107-252 107zm0-793q-178 0-306 128t-128 308 127 307 307 127 308-128 128-306-129-307-307-129z"/>
  </symbol>
  <symbol id="uniE911" viewBox="2 383 870 870">
    <path d="m436 1176q-144 0-250-106t-106-250 104-253q104-104 252-104t252 104 104 253-104 249q-107 107-252 107zm0-793q-178 0-306 128t-128 308 127 307 307 127 308-128 128-306-129-307-307-129z"/>
  </symbol>
  <symbol id="uniE912" viewBox="2 197 870 1216">
    <path d="m80 820q0-144 104-253 90-90 213-102v709q-127-16-213-105-104-105-104-249zm395 354v-709q123 12 220 109t97 246-104 249q-86 89-213 105zm-39-977q-16 0-27 11t-12 28v149q-162 16-268 127-127 127-127 307t127 307q104 109 268 125v123q0 39 39 39t39-39v-123q162-16 268-125 129-129 129-307t-129-307q-109-111-268-127v-149q0-16-11-28-12-11-28-11z"/>
  </symbol>
  <symbol id="uniE913" viewBox="0 197 870 1216">
    <path d="m473 465q123 12 220 109t97 246-104 249q-86 88-213 105v-261q63-27 63-95t-63-93v-260zm-141 355q0 66 63 93v261q-125-16-211-105-106-102-106-249t98-245 219-110v260q-63 29-63 95zm538-1q0-178-129-307-109-111-268-127v-149q0-16-11-28-12-12-28-11-16 0-27 12t-12 27v149q-159 16-277 135t-118 299 118 298 277 134v123q-1 16 11 28t28 11q39 0 39-39v-123q162-16 268-125 129-129 129-307z"/>
  </symbol>
  <symbol id="uniE914" viewBox="0 383 809 870">
    <path d="m338 818q0 42 30 73t71 31q42 0 73-31t31-73-31-72-73-30q-41 0-71 30t-30 72zm98-435q-180 0-308 128t-128 308 127 307 309 127q109 0 205-52t158-144q8-11 8-27t-19-26q-8-8-24-8t-31 18q-49 76-129 119t-168 43q-150 0-252-107-106-103-106-249t103-252 255-105q90 0 172 45t129 123q9 18 27 18 46 0 45-41 0-8-4-20-63-96-159-150t-210-55z"/>
  </symbol>
  <symbol id="uniE915" viewBox="0 383 809 870">
    <path d="m436 383q-180 0-308 128t-128 308 127 307 309 127q109 0 205-52t158-144q8-11 8-27t-19-26q-8-8-24-8t-31 18q-49 76-129 119t-168 43q-150 0-252-107-106-103-106-249t103-252 255-105q90 0 172 45t129 123q9 18 27 18 46 0 45-41 0-8-4-20-63-96-159-150t-210-55z"/>
  </symbol>
  <symbol id="uniE916" viewBox="-4 410 811 870">
    <path d="m371 410q-113 0-213 57t-156 147q-6 8-6 24t13 28q13 10 29 10t32-19q47-81 128-125t173-45q145-1 251 103t105 252q0 148-104 254-104 104-252 104-190 0-299-160-10-18-26-18-46 0-46 39 0 12 6 22 60 93 158 145t207 52q178 0 307-129t129-307-128-306-308-128z"/>
  </symbol>
  <symbol id="uniE917" viewBox="2 197 809 1216">
    <path d="m340 820q0 68 61 93v261q-125-12-223-110t-98-244q0-144 104-253 92-92 217-104v262q-61 27-61 95zm426-171q17 0 31-9 14-8 14-24t-4-28q-70-100-157-148t-171-53v-151q0-16-11-28-10-12-26-11-16 0-28 12t-13 27v149q-159 12-279 133t-120 301 120 300 279 132v123q-1 16 11 28t28 11q39 0 39-39v-123q99-8 183-59t137-135q8-7 8-25 0-34-39-37-20 0-35 19-90 139-254 157v-258q66-27 66-95t-66-93v-260q73 8 143 48t117 118q10 18 27 18z"/>
  </symbol>
  <symbol id="uniE918" viewBox="2 197 809 1216">
    <path d="m80 820q0-144 104-253 92-92 217-104v711q-125-12-223-110-98-100-98-244zm361-623q-15 0-27 12t-13 27v149q-159 12-279 133t-120 301 120 300 279 132v123q-1 16 11 28t28 11q39 0 39-39v-123q99-8 183-59t137-135q8-7 8-25 0-34-39-37-20 0-35 19-90 139-254 157v-706q73 8 143 48t117 118q11 18 27 18 46 0 45-41 0-8-4-20-70-100-157-148t-171-53v-151q0-16-11-28-12-11-27-11z"/>
  </symbol>
  <symbol id="uniE919" viewBox="0 197 811 1216">
    <path d="m733 820q0 146-106 249-88 93-217 105v-711q129 12 217 104 106 107 106 253zm-362-623q-16 0-28 11-11 11-11 28v151q-86 6-174 55t-152 146q-6 18-6 30t15 22 33 9q18 0 26-18 48-78 118-118t140-48v706q-164-18-254-157-14-18-30-18t-25 8q-19 10-19 27t8 26q117 176 320 194v123q0 39 39 39t39-39v-123q162-12 282-132t119-300q0-180-121-301t-280-133v-149q0-16-12-28t-27-11z"/>
  </symbol>
  <use transform="translate(0,-212)" width="50" height="100%" xlink:href="#uniE910">
    <title>uniE910</title>
  </use>
  <use transform="translate(0,-212)" x="50" width="50" height="100%" xlink:href="#uniE911">
    <title>uniE911</title>
  </use>
  <use transform="translate(0,-212)" x="100" width="50" height="100%" xlink:href="#uniE912">
    <title>uniE912</title>
  </use>
  <use transform="translate(0,-212)" x="150" width="50" height="100%" xlink:href="#uniE913">
    <title>uniE913</title>
  </use>
  <use transform="translate(0,-212)" x="200" width="50" height="100%" xlink:href="#uniE914">
    <title>uniE914</title>
  </use>
  <use transform="translate(0,-212)" x="250" width="50" height="100%" xlink:href="#uniE915">
    <title>uniE915</title>
  </use>
  <use transform="translate(0,-212)" x="300" width="50" height="100%" xlink:href="#uniE916">
    <title>uniE916</title>
  </use>
  <use transform="translate(0,-212)" x="350" width="50" height="100%" xlink:href="#uniE917">
    <title>uniE917</title>
  </use>
  <use transform="translate(0,-212)" x="400" width="50" height="100%" xlink:href="#uniE918">
    <title>uniE918</title>
  </use>
  <use transform="translate(0,-212)" x="450" width="50" height="100%" xlink:href="#uniE919">
    <title>uniE919</title>
  </use>
</svg>
