<?xml version="1.0" encoding="UTF-8" standalone="no"?>
<svg width="1000px" height="1000px" version="1.1" xmlns="http://www.w3.org/2000/svg" xmlns:xlink="http://www.w3.org/1999/xlink" overflow="visible">
<desc> C2 mensuration sign (SMUFL E915+E927) </desc>
<defs>



	<symbol id="c-2" viewBox="0 0 1000 1000" overflow="inherit">
		<title> C2 mensuration </title>
		<desc> SMUFL codepoint E915 next to E927. </desc>
		<path transform="scale(1,-1)" 
			d="M266 -266c-71 0 -138 28 -188 78s-78 117 -78 188c0 70 28 137 78 187s117 78 188 78c89 0 172 -45 221 -120c3 -4 5 -9 5 -14c0 -8 -4 -15 -11 -19c-4 -3 -8 -4 -13 -4c-8 0 -16 4 -21 11c-40 61 -108 98 -181 98c-59 0 -113 -23 -154 -64s-64 -95 -64 -153 s23 -113 64 -154s95 -64 154 -64c37 0 74 10 107 28c31 18 58 44 77 75c4 7 12 11 20 11c4 0 9 -1 13 -4c7 -5 11 -13 11 -21c0 -4 -1 -8 -3 -12c-24 -37 -56 -69 -95 -91s-85 -34 -130 -34z"
		/> 
		<path transform="scale(1,-1) translate(530,0)" 
			d="M297 -127h26c5 -1 6 -7 6 -11c0 -31 2 -62 2 -94c0 -4 -1 -18 -20 -18h-302s-9 4 -9 14c0 9 12 40 12 40s4 10 15 17c12 8 227 151 227 269c0 49 -22 99 -89 99c-66 0 -120 -87 -124 -91s-10 -10 -16 -10c-1 0 -3 0 -4 1c-10 5 -14 13 -14 23c0 9 4 19 9 26c3 3 5 7 8 11 c31 43 75 104 153 104c85 0 152 -72 152 -156c0 -82 -58 -137 -78 -156c-19 -19 -124 -112 -124 -112s-22 -14 -22 -23c0 -5 6 -8 22 -8c20 0 131 2 140 2c6 0 10 17 17 47c3 13 6 26 13 26z"
		/> 
	</symbol>



</defs>
<use xlink:href="#c-2" x="0" y="364" height="1000px" width="1000px" />
</svg>
