<?xml version="1.0" encoding="UTF-8" standalone="no"?>
<svg width="1000px" height="1000px" version="1.1" xmlns="http://www.w3.org/2000/svg" xmlns:xlink="http://www.w3.org/1999/xlink" overflow="visible">
<defs>



	<symbol id="c-dot-3-over-8" viewBox="0 0 1000 1000" overflow="inherit">
		<title> C-dot 3/8 mensuration </title>
		<desc> SMUFL codepoint E914 next to E928 over "8", with the "8" faked with a forwards and backwards "3". </desc>
		<path transform="scale(1,-1), translte(-500, 0)" 
			d="M266 -266c-71 0 -138 28 -188 78s-78 117 -78 188c0 70 28 137 78 187s117 78 188 78c89 0 172 -45 221 -120c3 -4 5 -9 5 -14c0 -8 -4 -15 -11 -19c-4 -3 -8 -4 -13 -4c-8 0 -16 4 -21 11c-40 61 -108 98 -181 98c-59 0 -113 -23 -154 -64s-64 -95 -64 -153 s23 -113 64 -154s95 -64 154 -64c37 0 74 10 107 28c31 18 58 44 77 75c4 7 12 11 20 11c4 0 9 -1 13 -4c7 -5 11 -13 11 -21c0 -4 -1 -8 -3 -12c-24 -37 -56 -69 -95 -91s-85 -34 -130 -34zM268 62c35 0 63 -28 63 -62c0 -35 -28 -63 -63 -63c-34 0 -62 28 -62 63 c0 34 28 62 62 62z"
		/> 
		<path transform="scale(0.7,-0.7), translate(800, 139)" 
			d="M80 2v16s0 9 6 9c19 0 104 32 104 127c0 33 -24 48 -64 48s-76 -47 -84 -55c-1 -1 -6 -6 -9 -6s-21 26 -21 31c0 3 10 13 14 17c19 20 63 64 118 64c58 0 109 -39 109 -101c0 -61 -64 -100 -64 -100s-5 -2 -5 -4c0 -1 1 -3 5 -4c1 0 2 -1 3 -1c20 -6 102 -33 102 -120 c0 -93 -111 -173 -216 -173c-42 0 -78 20 -78 47v45c0 2 1 5 8 5c9 0 19 -9 30 -19c11 -11 12 -32 70 -32s118 60 118 118c0 57 -44 80 -116 80h-22s-8 0 -8 8z"
		/> 
		<path transform="scale(0.7,-0.7), translate(800, -405)" 
			d="M80 2v16s0 9 6 9c19 0 104 32 104 127c0 33 -24 48 -64 48s-76 -47 -84 -55c-1 -1 -6 -6 -9 -6s-21 26 -21 31c0 3 10 13 14 17c19 20 63 64 118 64c58 0 109 -39 109 -101c0 -61 -64 -100 -64 -100s-5 -2 -5 -4c0 -1 1 -3 5 -4c1 0 2 -1 3 -1c20 -6 102 -33 102 -120 c0 -93 -111 -173 -216 -173c-42 0 -78 20 -78 47v45c0 2 1 5 8 5c9 0 19 -9 30 -19c11 -11 12 -32 70 -32s118 60 118 118c0 57 -44 80 -116 80h-22s-8 0 -8 8z"
		/> 
		<path transform="scale(-0.7,-0.7), translate(-1020, -405)" 
			d="M80 2v16s0 9 6 9c19 0 104 32 104 127c0 33 -24 48 -64 48s-76 -47 -84 -55c-1 -1 -6 -6 -9 -6s-21 26 -21 31c0 3 10 13 14 17c19 20 63 64 118 64c58 0 109 -39 109 -101c0 -61 -64 -100 -64 -100s-5 -2 -5 -4c0 -1 1 -3 5 -4c1 0 2 -1 3 -1c20 -6 102 -33 102 -120 c0 -93 -111 -173 -216 -173c-42 0 -78 20 -78 47v45c0 2 1 5 8 5c9 0 19 -9 30 -19c11 -11 12 -32 70 -32s118 60 118 118c0 57 -44 80 -116 80h-22s-8 0 -8 8z"
		/> 
	</symbol>



</defs>
<use xlink:href="#c-dot-3-over-8" x="0" y="364" height="1000px" width="1000px" />
</svg>
