<?xml version="1.0" encoding="UTF-8" standalone="no"?>
<svg width="1000px" height="1000px" version="1.1" xmlns="http://www.w3.org/2000/svg" xmlns:xlink="http://www.w3.org/1999/xlink" overflow="visible">
<defs>



	<symbol id="c-pipe-3" viewBox="0 0 1000 1000" overflow="inherit">
		<title> Cut-C 3 mensuration </title>
		<desc> SMUFL codepoint E918 next to E928. </desc>
		<path transform="scale(1,-1)" 
			d="M269 -380c-13 0 -24 11 -24 24v91c-63 5 -121 32 -166 77c-50 50 -78 117 -78 188c0 70 28 137 78 187c45 45 103 72 166 77v75c0 13 11 24 24 24c14 0 24 -11 24 -24v-75c80 -8 151 -51 195 -119c3 -4 5 -9 5 -14c0 -8 -4 -15 -11 -19c-4 -3 -8 -4 -13 -4 c-8 0 -16 4 -21 11c-35 54 -92 89 -155 96v-431c29 3 56 12 81 26c31 18 58 44 77 75c4 7 12 11 20 11c4 0 9 -1 13 -4c7 -5 11 -13 11 -21c0 -4 -1 -8 -3 -12c-24 -37 -56 -69 -95 -90c-32 -18 -67 -30 -104 -33v-92c0 -13 -10 -24 -24 -24zM245 216 c-50 -5 -96 -27 -132 -63c-41 -41 -64 -95 -64 -153s23 -113 64 -154c36 -36 82 -58 132 -63v433z" 
		/>
		<path transform="scale(1,-1), translate(530, 0)" 
			d="M80 2v16s0 9 6 9c19 0 104 32 104 127c0 33 -24 48 -64 48s-76 -47 -84 -55c-1 -1 -6 -6 -9 -6s-21 26 -21 31c0 3 10 13 14 17c19 20 63 64 118 64c58 0 109 -39 109 -101c0 -61 -64 -100 -64 -100s-5 -2 -5 -4c0 -1 1 -3 5 -4c1 0 2 -1 3 -1c20 -6 102 -33 102 -120 c0 -93 -111 -173 -216 -173c-42 0 -78 20 -78 47v45c0 2 1 5 8 5c9 0 19 -9 30 -19c11 -11 12 -32 70 -32s118 60 118 118c0 57 -44 80 -116 80h-22s-8 0 -8 8z"
		/> 
	</symbol>



</defs>
<use xlink:href="#c-pipe-3" x="0" y="364" height="1000px" width="1000px" />
</svg>
