<?xml version="1.0" encoding="UTF-8" standalone="no"?>
<svg width="1000px" height="1000px" version="1.1" xmlns="http://www.w3.org/2000/svg" xmlns:xlink="http://www.w3.org/1999/xlink" overflow="visible">
<defs>



	<symbol id="c-pipe-2" viewBox="0 0 1000 1000" overflow="inherit">
		<title> Cut-C 2 mensuration </title>
		<desc> SMUFL codepoint E918 next to E928. </desc>
		<path transform="scale(1,-1)" 
			d="M269 -380c-13 0 -24 11 -24 24v91c-63 5 -121 32 -166 77c-50 50 -78 117 -78 188c0 70 28 137 78 187c45 45 103 72 166 77v75c0 13 11 24 24 24c14 0 24 -11 24 -24v-75c80 -8 151 -51 195 -119c3 -4 5 -9 5 -14c0 -8 -4 -15 -11 -19c-4 -3 -8 -4 -13 -4 c-8 0 -16 4 -21 11c-35 54 -92 89 -155 96v-431c29 3 56 12 81 26c31 18 58 44 77 75c4 7 12 11 20 11c4 0 9 -1 13 -4c7 -5 11 -13 11 -21c0 -4 -1 -8 -3 -12c-24 -37 -56 -69 -95 -90c-32 -18 -67 -30 -104 -33v-92c0 -13 -10 -24 -24 -24zM245 216 c-50 -5 -96 -27 -132 -63c-41 -41 -64 -95 -64 -153s23 -113 64 -154c36 -36 82 -58 132 -63v433z" 
		/>
		<path transform="scale(1,-1), translate(530, 0)" 
    			d="M297 -127h26c5 -1 6 -7 6 -11c0 -31 2 -62 2 -94c0 -4 -1 -18 -20 -18h-302s-9 4 -9 14c0 9 12 40 12 40s4 10 15 17c12 8 227 151 227 269c0 49 -22 99 -89 99c-66 0 -120 -87 -124 -91s-10 -10 -16 -10c-1 0 -3 0 -4 1c-10 5 -14 13 -14 23c0 9 4 19 9 26c3 3 5 7 8 11 c31 43 75 104 153 104c85 0 152 -72 152 -156c0 -82 -58 -137 -78 -156c-19 -19 -124 -112 -124 -112s-22 -14 -22 -23c0 -5 6 -8 22 -8c20 0 131 2 140 2c6 0 10 17 17 47c3 13 6 26 13 26z"
		/> 
	</symbol>



</defs>
<use xlink:href="#c-pipe-2" x="0" y="364" height="1000px" width="1000px" />
</svg>
