<?xml version="1.0" encoding="UTF-8" standalone="no"?>
<svg width="1000px" height="1000px" version="1.1" xmlns="http://www.w3.org/2000/svg" xmlns:xlink="http://www.w3.org/1999/xlink" overflow="visible">
<defs>



	<symbol id="c" viewBox="0 0 1000 1000" overflow="inherit">
		<title> C mensuration </title>
		<desc> SMUFL codepoint E915. </desc>
		<path transform="scale(1,-1)" 
			d="M266 -266c-71 0 -138 28 -188 78s-78 117 -78 188c0 70 28 137 78 187s117 78 188 78c89 0 172 -45 221 -120c3 -4 5 -9 5 -14c0 -8 -4 -15 -11 -19c-4 -3 -8 -4 -13 -4c-8 0 -16 4 -21 11c-40 61 -108 98 -181 98c-59 0 -113 -23 -154 -64s-64 -95 -64 -153 s23 -113 64 -154s95 -64 154 -64c37 0 74 10 107 28c31 18 58 44 77 75c4 7 12 11 20 11c4 0 9 -1 13 -4c7 -5 11 -13 11 -21c0 -4 -1 -8 -3 -12c-24 -37 -56 -69 -95 -91s-85 -34 -130 -34z"
		/> 
	</symbol>



</defs>
<use xlink:href="#c" x="0" y="364" height="1000px" width="1000px" />
</svg>
