<?xml version="1.0" encoding="UTF-8" standalone="no"?>
<svg width="1000px" height="1000px" version="1.1" xmlns="http://www.w3.org/2000/svg" xmlns:xlink="http://www.w3.org/1999/xlink" overflow="visible">
<defs>



	<symbol id="n2-over-1" viewBox="0 0 1000 1000" overflow="inherit">
		<title> 2/1 mensuration </title>
		<desc> SMUFL codepoint E927 over E926. </desc>
		<path transform="scale(0.9,-0.9), translate(0, 139)" 
    			d="M297 -127h26c5 -1 6 -7 6 -11c0 -31 2 -62 2 -94c0 -4 -1 -18 -20 -18h-302s-9 4 -9 14c0 9 12 40 12 40s4 10 15 17c12 8 227 151 227 269c0 49 -22 99 -89 99c-66 0 -120 -87 -124 -91s-10 -10 -16 -10c-1 0 -3 0 -4 1c-10 5 -14 13 -14 23c0 9 4 19 9 26c3 3 5 7 8 11 c31 43 75 104 153 104c85 0 152 -72 152 -156c0 -82 -58 -137 -78 -156c-19 -19 -124 -112 -124 -112s-22 -14 -22 -23c0 -5 6 -8 22 -8c20 0 131 2 140 2c6 0 10 17 17 47c3 13 6 26 13 26z"
		/> 
		<path transform="scale(0.9,-0.9), translate(0, -405)" 
			d="M249 -215v-24c0 -3 -1 -11 -12 -11h-227c-3 0 -10 1 -10 8v25s0 8 7 8c87 0 88 14 88 73v251c0 47 -10 49 -52 49c0 0 -5 -1 -10 -1c-7 0 -16 2 -16 8l1 20s5 11 15 11c9 0 60 8 96 44c0 0 9 7 17 7c7 0 13 -5 13 -24v-366c0 -64 16 -72 80 -72c3 0 10 -1 10 -6z"
		/> 
	</symbol>



</defs>
<use xlink:href="#n2-over-1" x="0" y="364" height="1000px" width="1000px" />
</svg>
