<?xml version="1.0" encoding="UTF-8" standalone="no"?>
<svg width="1000px" height="1000px" version="1.1" xmlns="http://www.w3.org/2000/svg" xmlns:xlink="http://www.w3.org/1999/xlink" overflow="visible">
<defs>



	<symbol id="n3-over-2" viewBox="0 0 1000 1000" overflow="inherit">
		<title> 3/2 mensuration </title>
		<desc> SMUFL codepoint E928 over E927. </desc>
		<path transform="scale(0.9,-0.9), translate(0, 139)" 
			d="M80 2v16s0 9 6 9c19 0 104 32 104 127c0 33 -24 48 -64 48s-76 -47 -84 -55c-1 -1 -6 -6 -9 -6s-21 26 -21 31c0 3 10 13 14 17c19 20 63 64 118 64c58 0 109 -39 109 -101c0 -61 -64 -100 -64 -100s-5 -2 -5 -4c0 -1 1 -3 5 -4c1 0 2 -1 3 -1c20 -6 102 -33 102 -120 c0 -93 -111 -173 -216 -173c-42 0 -78 20 -78 47v45c0 2 1 5 8 5c9 0 19 -9 30 -19c11 -11 12 -32 70 -32s118 60 118 118c0 57 -44 80 -116 80h-22s-8 0 -8 8z"
		/> 
		<path transform="scale(0.9,-0.9), translate(0, -405)" 
    			d="M297 -127h26c5 -1 6 -7 6 -11c0 -31 2 -62 2 -94c0 -4 -1 -18 -20 -18h-302s-9 4 -9 14c0 9 12 40 12 40s4 10 15 17c12 8 227 151 227 269c0 49 -22 99 -89 99c-66 0 -120 -87 -124 -91s-10 -10 -16 -10c-1 0 -3 0 -4 1c-10 5 -14 13 -14 23c0 9 4 19 9 26c3 3 5 7 8 11 c31 43 75 104 153 104c85 0 152 -72 152 -156c0 -82 -58 -137 -78 -156c-19 -19 -124 -112 -124 -112s-22 -14 -22 -23c0 -5 6 -8 22 -8c20 0 131 2 140 2c6 0 10 17 17 47c3 13 6 26 13 26z"
		/> 
	</symbol>



</defs>
<use xlink:href="#n3-over-2" x="0" y="364" height="1000px" width="1000px" />
</svg>
