<?xml version="1.0" encoding="UTF-8" standalone="no"?>
<svg width="1000px" height="1000px" version="1.1" xmlns="http://www.w3.org/2000/svg" xmlns:xlink="http://www.w3.org/1999/xlink" overflow="visible">
<defs>



	<symbol id="n4-over-3" viewBox="0 0 1000 1000" overflow="inherit">
		<title> 4/3 mensuration </title>
		<desc> SMUFL codepoint E929 over E928. </desc>
		<path transform="scale(0.9,-0.9), translate(0, 139)" 
			d="M202 -28v163c0 2 0 3 -1 3c-2 0 -8 -8 -8 -8s-100 -133 -111 -149c-4 -5 -5 -9 -5 -11c0 -4 5 -4 5 -4h111c7 0 9 6 9 6zM379 -38v-49c0 -3 -1 -8 -7 -8h-86s-7 -3 -7 -11v-138s-1 -6 -7 -6h-67s-5 3 -5 12s2 135 2 135s0 10 -9 10h-183s-10 1 -10 8v17s2 9 8 17l223 293 s5 8 14 8h22s12 0 12 -11v-263c0 -2 1 -8 9 -8h86c2 0 5 -1 5 -6z"
		/> 
		<path transform="scale(0.9,-0.9), translate(0, -405)" 
			d="M80 2v16s0 9 6 9c19 0 104 32 104 127c0 33 -24 48 -64 48s-76 -47 -84 -55c-1 -1 -6 -6 -9 -6s-21 26 -21 31c0 3 10 13 14 17c19 20 63 64 118 64c58 0 109 -39 109 -101c0 -61 -64 -100 -64 -100s-5 -2 -5 -4c0 -1 1 -3 5 -4c1 0 2 -1 3 -1c20 -6 102 -33 102 -120 c0 -93 -111 -173 -216 -173c-42 0 -78 20 -78 47v45c0 2 1 5 8 5c9 0 19 -9 30 -19c11 -11 12 -32 70 -32s118 60 118 118c0 57 -44 80 -116 80h-22s-8 0 -8 8z"
		/> 
	</symbol>


</defs>
<use xlink:href="#n4-over-3" x="0" y="364" height="1000px" width="1000px" />
</svg>
