<?xml version="1.0" encoding="UTF-8" standalone="no"?>
<svg width="1000px" height="1000px" version="1.1" xmlns="http://www.w3.org/2000/svg" xmlns:xlink="http://www.w3.org/1999/xlink" overflow="visible">
<defs>



	<symbol id="6-over-4" viewBox="0 0 1000 1000" overflow="inherit">
		<title> 6/4 mensuration </title>
		<desc> "6" over SMUFL codepoint E929. </desc>
		<g transform="translate(200, 100)">
			<path d="M11.25,270V123.3c0-1.8,0-2.7-0.9-2.7c-1.799,0-7.199,7.2-7.199,7.2s-90,119.7-99.9,134.1c-3.6,4.5-4.5,8.101-4.5,9.9
				c0,3.6,4.5,3.6,4.5,3.6h99.9C9.45,275.399,11.25,270,11.25,270z M170.551,279v44.1c0,2.7-0.9,7.2-6.301,7.2h-77.4
				c0,0-6.299,2.7-6.299,9.9v124.199c0,0-0.9,5.4-6.301,5.4h-60.3c0,0-4.5-2.7-4.5-10.8c0-8.101,1.8-121.5,1.8-121.5s0-9-8.1-9h-164.7
				c0,0-9-0.9-9-7.2V306c0,0,1.8-8.101,7.2-15.3L37.35,27c0,0,4.5-7.2,12.601-7.2h19.8c0,0,10.801,0,10.801,9.9v236.699
				c0,1.801,0.899,7.2,8.1,7.2h77.4C167.85,273.6,170.551,274.5,170.551,279z"/>
			<path d="M158.207-476.133c-10.82,0-25.699,0.646-43.311,3.381c-55.543,6.763-104.293,29.109-140.841,65.011
				c-44.017,43.34-74.478,111.702-74.478,198.354c0,114.437,61.599,187.562,155.043,187.562c92.061,0,146.926-74.479,146.926-155.72
				c0-85.327-54.865-142.193-132.695-142.193c-48.752,0-86.004,23.023-106.968,51.455h-1.353
				c10.144-73.125,58.894-140.84,153.014-155.718c16.907-2.706,32.491-4.059,44.663-3.411V-476.133z M55.973-67.871
				c-62.953,0-96.795-54.161-97.501-126.609c0-10.821,2.705-18.966,6.087-25.728c16.289-32.521,50.132-54.161,86.004-54.161
				c54.837,0,90.738,37.931,90.738,100.882C141.301-110.535,106.752-67.871,55.973-67.871z"/>
		</g>
	</symbol>



</defs>
<use xlink:href="#6-over-4" x="0" y="364" height="1000px" width="1000px" />
</svg>
