<?xml version="1.0" encoding="UTF-8" standalone="no"?>
<svg width="1000px" height="1000px" version="1.1" xmlns="http://www.w3.org/2000/svg" xmlns:xlink="http://www.w3.org/1999/xlink" overflow="visible">
<defs>



	<symbol id="o-over-3" viewBox="0 0 1000 1000" overflow="inherit">
		<title> Circle/3 mensuration </title>
		<desc> SMUFL codepoint E911 over E928. </desc>
		<path transform="scale(0.9,-0.9), translate(0, 139)" 
			d="M266 -266c-70 0 -137 28 -187 78s-78 117 -78 188c0 70 28 137 78 187s117 78 187 78c71 0 138 -28 188 -78s78 -117 78 -187c0 -71 -28 -138 -78 -188s-117 -78 -188 -78zM266 217c-58 0 -112 -23 -153 -64s-64 -95 -64 -153s23 -113 64 -154s95 -64 153 -64 s113 23 154 64s64 96 64 154s-23 112 -64 153s-96 64 -154 64z" 
		/> 
		<path transform="scale(0.9,-0.9), translate(150, -385)" 
			d="M80 2v16s0 9 6 9c19 0 104 32 104 127c0 33 -24 48 -64 48s-76 -47 -84 -55c-1 -1 -6 -6 -9 -6s-21 26 -21 31c0 3 10 13 14 17c19 20 63 64 118 64c58 0 109 -39 109 -101c0 -61 -64 -100 -64 -100s-5 -2 -5 -4c0 -1 1 -3 5 -4c1 0 2 -1 3 -1c20 -6 102 -33 102 -120 c0 -93 -111 -173 -216 -173c-42 0 -78 20 -78 47v45c0 2 1 5 8 5c9 0 19 -9 30 -19c11 -11 12 -32 70 -32s118 60 118 118c0 57 -44 80 -116 80h-22s-8 0 -8 8z"
		/> 
	</symbol>



</defs>
<use xlink:href="#o-over-3" x="0" y="364" height="1000px" width="1000px" />
</svg>
